# xmcd
#
# Track frame offsets:
#	150
#	26627
#	42591
#
# Disc length: 783 seconds
#
# Revision: 2
# Processed by: cddbd v1.5.2PL0 Copyright (c) Steve Scherf et al.
# Submitted via: audiograbber 1.83.01
#
DISCID=21030d03
DTITLE=Bo Shannon - Follow Me (MCD)
DYEAR=2006
DGENRE=Schlager
TTITLE0=Follow Me (Maxi Version)
TTITLE1=Follow Me (Lounge Version)
TTITLE2=Follow Me (Single Version)
EXTD=DJ Promo YEAR: 2006
EXTT0=
EXTT1=
EXTT2=
PLAYORDER=
